HIERARCHY
ROOT Hips
{
	OFFSET 0.000000 0.000000 0.000000
	CHANNELS 6 Xposition Yposition Zposition Zrotation Yrotation Xrotation 
	JOINT LHipJoint
	{
		OFFSET 0.000000 0.000000 0.000000
		CHANNELS 3 Zrotation Yrotation Xrotation
		JOINT LeftUpLeg
		{
			OFFSET 1.363060 -1.794630 0.839290
			CHANNELS 3 Zrotation Yrotation Xrotation
			JOINT LeftLeg
			{
				OFFSET 2.448110 -6.726130 0.000000
				CHANNELS 3 Zrotation Yrotation Xrotation
				JOINT LeftFoot
				{
					OFFSET 2.562200 -7.039590 0.000000
					CHANNELS 3 Zrotation Yrotation Xrotation
					JOINT LeftToeBase
					{
						OFFSET 0.157640 -0.433110 2.322550
						CHANNELS 3 Zrotation Yrotation Xrotation
						End Site
						{
							OFFSET 0.000000 0.000000 0.000000
						}
					}
				}
			}
		}
	}
	JOINT RHipJoint
	{
		OFFSET 0.000000 0.000000 0.000000
		CHANNELS 3 Zrotation Yrotation Xrotation
		JOINT RightUpLeg
		{
			OFFSET -1.305520 -1.794630 0.839290
			CHANNELS 3 Zrotation Yrotation Xrotation
			JOINT RightLeg
			{
				OFFSET -2.542530 -6.985550 0.000000
				CHANNELS 3 Zrotation Yrotation Xrotation
				JOINT RightFoot
				{
					OFFSET -2.568260 -7.056230 0.000000
					CHANNELS 3 Zrotation Yrotation Xrotation
					JOINT RightToeBase
					{
						OFFSET -0.164730 -0.452590 2.363150
						CHANNELS 3 Zrotation Yrotation Xrotation
						End Site
						{
							OFFSET 0.000000 0.000000 0.000000
						}
					}
				}
			}
		}
	}
	JOINT LowerBack
	{
		OFFSET 0.000000 0.000000 0.000000
		CHANNELS 3 Zrotation Yrotation Xrotation
		JOINT Spine
		{
			OFFSET 0.028270 2.035590 -0.193380
			CHANNELS 3 Zrotation Yrotation Xrotation
			JOINT Spine1
			{
				OFFSET 0.056720 2.048850 -0.042750
				CHANNELS 3 Zrotation Yrotation Xrotation
				JOINT Neck
				{
					OFFSET 0.000000 0.000000 0.000000
					CHANNELS 3 Zrotation Yrotation Xrotation
					JOINT Neck1
					{
						OFFSET -0.054170 1.746240 0.172020
						CHANNELS 3 Zrotation Yrotation Xrotation
						JOINT Head
						{
							OFFSET 0.104070 1.761360 -0.123970
							CHANNELS 3 Zrotation Yrotation Xrotation
							End Site
							{
								OFFSET 0.000000 0.000000 0.000000
							}
						}
					}
				}
				JOINT LeftShoulder
				{
					OFFSET 0.000000 0.000000 0.000000
					CHANNELS 3 Zrotation Yrotation Xrotation
					JOINT LeftArm
					{
						OFFSET 3.362410 1.200890 -0.311210
						CHANNELS 3 Zrotation Yrotation Xrotation
						JOINT LeftForeArm
						{
							OFFSET 4.983000 -0.000000 -0.000000
							CHANNELS 3 Zrotation Yrotation Xrotation
							JOINT LeftHand
							{
								OFFSET 3.483560 -0.000000 -0.000000
								CHANNELS 3 Zrotation Yrotation Xrotation
								JOINT LeftFingerBase
								{
									OFFSET 0.000000 0.000000 0.000000
									CHANNELS 3 Zrotation Yrotation Xrotation
									JOINT LeftHandIndex1
									{
										OFFSET 0.715260 -0.000000 -0.000000
										CHANNELS 3 Zrotation Yrotation Xrotation
										End Site
										{
											OFFSET 0.000000 0.000000 0.000000
										}
									}
								}
								JOINT LThumb
								{
									OFFSET 0.000000 0.000000 0.000000
									CHANNELS 3 Zrotation Yrotation Xrotation
									End Site
									{
										OFFSET 0.000000 0.000000 0.000000
									}
								}
							}
						}
					}
				}
				JOINT RightShoulder
				{
					OFFSET 0.000000 0.000000 0.000000
					CHANNELS 3 Zrotation Yrotation Xrotation
					JOINT RightArm
					{
						OFFSET -3.136600 1.374050 -0.404650
						CHANNELS 3 Zrotation Yrotation Xrotation
						JOINT RightForeArm
						{
							OFFSET -5.241900 -0.000000 -0.000000
							CHANNELS 3 Zrotation Yrotation Xrotation
							JOINT RightHand
							{
								OFFSET -3.444170 -0.000000 -0.000000
								CHANNELS 3 Zrotation Yrotation Xrotation
								JOINT RightFingerBase
								{
									OFFSET 0.000000 0.000000 0.000000
									CHANNELS 3 Zrotation Yrotation Xrotation
									JOINT RightHandIndex1
									{
										OFFSET -0.622530 -0.000000 -0.000000
										CHANNELS 3 Zrotation Yrotation Xrotation
										End Site
										{
											OFFSET 0.000000 0.000000 0.000000
										}
									}
								}
								JOINT RThumb
								{
									OFFSET 0.000000 0.000000 0.000000
									CHANNELS 3 Zrotation Yrotation Xrotation
									End Site
									{
										OFFSET 0.000000 0.000000 0.000000
									}
								}
							}
						}
					}
				}
			}
		}
	}
}
MOTION
Frames: 8
Frame Time: 0.008333
10.693046 18.029937 10.866038 1.770295 -9.977503 1.779885 -3.750266 1.151844 2.122829 -10.506849 -12.991417 -11.039731 0.462560 8.057973 24.193574 1.685847 -27.205718 2.686456 0.100600 -2.045900 -5.632400 1.605462 -1.047885 1.510639 21.207024 -0.308989 -9.411328 -1.916315 -9.204572 27.968317 -2.456663 11.557240 -3.907259 -0.807500 -5.734700 16.016500 1.575065 0.527078 10.115381 2.740926 1.060555 0.690416 2.584694 0.450861 -5.172299 -10.603126 -6.408987 -4.610727 6.620651 -10.061572 31.469945 4.116200 -5.237000 17.941700 -3.763334 -0.843111 -0.989573 -84.216600 5.064618 60.478383 86.095461 -59.758356 -64.133232 1.428931 -1.922222 -34.390311 25.375181 26.065910 12.809100 -7.125000 0.000000 0.000000 -6.413000 61.088500 -2.519200 3.502927 1.437891 -0.936331 75.670554 -6.256274 55.507148 -96.769875 59.525345 -68.364206 0.764259 0.117038 -12.128395 -19.384536 13.768270 -4.986900 7.125000 0.000000 0.000000 4.960300 -15.405000 3.477700 
10.698879 18.027926 10.893093 1.830425 -10.646635 1.747756 -3.770011 1.137439 2.129047 -10.659004 -12.943556 -11.062133 0.361296 7.873846 23.721378 1.402478 -28.179839 4.545616 0.003900 0.404300 1.110900 1.604133 -1.050597 1.513894 21.100791 -0.000039 -9.160557 -1.901700 -9.176299 27.881743 -2.476435 11.686729 -3.933493 -0.782000 -5.645500 15.759400 1.482457 0.504613 10.058206 2.770997 1.014121 0.695877 2.708808 0.430196 -5.131069 -10.638159 -6.301867 -4.643057 6.534691 -9.885916 31.490634 4.100000 -5.189100 17.924900 -3.762435 -0.852940 -0.989653 -84.259389 4.969483 60.539722 85.965507 -59.739493 -64.039141 1.409983 -1.929457 -34.352772 25.448737 25.615282 12.678000 -7.125000 0.000000 0.000000 -6.071300 60.635700 -2.319100 3.508430 1.428666 -0.937884 75.664132 -6.231174 55.619527 -96.824979 59.525518 -68.415689 0.764263 0.125040 -12.291164 -19.511636 13.657205 -4.979600 7.125000 0.000000 0.000000 4.867900 -15.515400 3.400800 
10.704914 18.025713 10.927390 1.824173 -11.406392 1.713924 -3.781776 1.128519 2.139965 -10.749413 -12.969295 -11.028352 0.253848 7.692255 23.284998 1.076247 -29.039493 6.974550 0.005400 0.472400 1.298100 1.599480 -1.055548 1.516134 21.053630 0.380241 -8.833439 -1.890521 -9.150851 27.803421 -2.510182 11.867274 -4.075839 -0.727700 -5.450300 15.197600 1.458533 0.525244 9.952638 2.807550 1.032241 0.695860 2.800668 0.439589 -5.085325 -10.740563 -6.218656 -4.601360 6.548704 -9.769192 31.573281 4.148000 -5.169500 17.954300 -3.759591 -0.851565 -0.988818 -84.280445 4.989277 60.615158 85.957682 -59.741472 -64.044206 1.396295 -1.932558 -34.195841 25.437502 25.344793 12.564200 -7.125000 0.000000 0.000000 -5.938700 60.345500 -2.227200 3.510534 1.422430 -0.936862 75.620644 -6.326620 55.721276 -97.109084 59.519252 -68.648447 0.771420 0.128824 -12.389908 -19.837301 13.733825 -5.095200 7.125000 0.000000 0.000000 4.642000 -15.404400 3.253000 
10.712759 18.019980 10.959977 1.655540 -12.145469 1.725955 -3.788339 1.127899 2.152170 -10.653730 -13.074224 -10.987145 0.154845 7.527815 22.876756 0.843928 -29.588494 9.032354 0.041300 1.311400 3.606100 1.596245 -1.059643 1.517534 21.173968 0.675630 -8.552109 -1.881708 -9.127187 27.728371 -2.548212 11.978926 -4.415946 -0.605900 -4.982400 13.858300 1.644199 0.543619 9.888862 2.838573 1.077973 0.667438 2.759184 0.461294 -5.118597 -10.782494 -6.137348 -4.433536 6.562499 -9.680203 31.629532 4.184100 -5.155600 17.929900 -3.753345 -0.850383 -0.985461 -84.185493 5.079421 60.763030 86.115344 -59.769296 -64.181675 1.385338 -1.932476 -33.920750 25.393729 25.239986 12.494000 -7.125000 0.000000 0.000000 -5.936900 60.217400 -2.208400 3.508045 1.418097 -0.936629 75.646401 -6.531104 55.777180 -97.552763 59.503854 -69.006104 0.782418 0.127146 -12.425465 -20.236867 13.962263 -5.290500 7.125000 0.000000 0.000000 4.370900 -15.119400 3.088600 
10.721710 18.013040 10.991458 1.528591 -12.763197 1.738320 -3.799301 1.128583 2.155374 -10.599022 -13.172584 -10.951166 0.082258 7.401765 22.541150 0.738140 -29.823896 10.106499 0.141100 2.420800 6.670000 1.596065 -1.064124 1.520082 21.221717 0.872838 -8.298610 -1.871592 -9.099491 27.641490 -2.594137 12.228404 -4.602985 -0.594400 -4.935900 13.725700 1.816810 0.532318 9.789629 2.843350 1.079670 0.688421 2.669694 0.459909 -5.015993 -10.633237 -6.107860 -4.475415 6.393933 -9.645990 31.604717 4.068000 -5.138600 17.879200 -3.750458 -0.861905 -0.977738 -83.984242 4.935216 60.997359 86.208334 -59.786124 -64.256711 1.379468 -1.932389 -33.769450 25.394298 25.239923 12.492000 -7.125000 0.000000 0.000000 -5.936100 60.213400 -2.207600 3.510094 1.405175 -0.940253 75.785038 -6.585880 55.718992 -97.602814 59.502535 -69.038519 0.787526 0.125223 -12.317081 -20.421715 14.066241 -5.381300 7.125000 0.000000 0.000000 4.245900 -14.989500 3.011700 
10.732472 18.005799 11.024648 1.494883 -13.393562 1.726833 -3.811513 1.126575 2.157105 -10.655297 -13.221486 -10.908978 0.017809 7.297621 22.273275 0.670788 -29.819664 11.107795 0.304700 3.549200 9.811600 1.592891 -1.067478 1.521727 21.142340 0.967844 -8.128921 -1.866632 -9.078034 27.578261 -2.649185 12.697828 -4.533709 -0.626200 -5.063700 14.090200 1.878321 0.503185 9.644218 2.848434 1.040628 0.738841 2.648971 0.437349 -4.824256 -10.561768 -6.089766 -4.646072 6.271405 -9.613324 31.614646 3.989500 -5.127200 17.901800 -3.751863 -0.870610 -0.971319 -83.829630 4.690994 61.182263 86.183344 -59.784203 -64.233237 1.376596 -1.932639 -33.628545 25.354514 25.268222 12.479100 -7.125000 0.000000 0.000000 -5.998400 60.230300 -2.233300 3.513259 1.394148 -0.942079 75.863361 -6.584379 55.684325 -97.575757 59.507935 -69.009107 0.790504 0.116445 -12.231979 -20.342937 14.288553 -5.445200 7.125000 0.000000 0.000000 4.309300 -14.754400 3.078600 
10.742932 17.998356 11.058241 1.419197 -14.137295 1.730324 -3.818084 1.122632 2.170504 -10.676288 -13.074454 -10.921446 -0.031355 7.227324 22.086933 0.693672 -29.453253 11.728576 0.440100 4.256800 11.800300 1.584007 -1.068868 1.520177 21.099891 1.084068 -8.006275 -1.870364 -9.067884 27.555310 -2.715390 13.341850 -4.384754 -0.697600 -5.338900 14.877700 1.925789 0.473707 9.527758 2.875651 1.001498 0.752358 2.686794 0.415515 -4.728472 -10.651911 -6.033428 -4.762565 6.278729 -9.528763 31.710684 4.024500 -5.115500 17.994700 -3.752199 -0.867539 -0.971216 -83.821564 4.672949 61.210798 86.236862 -59.796716 -64.277924 1.357610 -1.943552 -33.326547 25.511972 25.104327 12.504200 -7.125000 0.000000 0.000000 -5.727300 60.099700 -2.114100 3.514288 1.388208 -0.941131 75.755781 -6.492212 55.954278 -97.654505 59.509008 -69.069889 0.796037 0.115322 -12.333556 -20.486584 14.446485 -5.546900 7.125000 0.000000 0.000000 4.215600 -14.568800 3.028000 
10.754196 17.992925 11.091431 1.409418 -14.823063 1.694354 -3.823561 1.125515 2.184497 -10.770530 -12.938373 -10.883144 -0.057325 7.203459 22.020128 0.819397 -28.599190 11.710793 0.558700 4.787800 13.304400 1.575532 -1.073393 1.523168 20.976301 1.159406 -7.873975 -1.873910 -9.060016 27.545639 -2.758296 13.976516 -4.015038 -0.834600 -5.828000 16.286100 1.954284 0.460740 9.477616 2.866815 0.984918 0.741645 2.654175 0.407706 -4.722008 -10.667045 -5.997102 -4.730021 6.275470 -9.496899 31.731719 4.031300 -5.114900 17.994000 -3.752646 -0.866410 -0.969685 -83.783629 4.696253 61.321186 86.340277 -59.816336 -64.359282 1.336331 -1.958701 -32.987783 25.793011 25.010181 12.627400 -7.125000 0.000000 0.000000 -5.348000 60.076900 -1.970700 3.511864 1.385917 -0.940440 75.718181 -6.324601 56.118472 -97.615596 59.511087 -69.040706 0.793885 0.122387 -12.505267 -20.538803 14.309716 -5.508500 7.125000 0.000000 0.000000 4.173800 -14.713200 2.985000 
